<svg xmlns="http://www.w3.org/2000/svg" xmlns:xlink="http://www.w3.org/1999/xlink" width="500" zoomAndPan="magnify" viewBox="0 0 375 374.999991" height="500" preserveAspectRatio="xMidYMid meet" version="1.2"><defs><clipPath id="eb431729fb"><path d="M 82.6875 37.5 L 292.6875 37.5 L 292.6875 197 L 82.6875 197 Z M 82.6875 37.5 "/></clipPath><clipPath id="25eebaae46"><path d="M 82.6875 147 L 264 147 L 264 291 L 82.6875 291 Z M 82.6875 147 "/></clipPath><clipPath id="eb78bc1a39"><path d="M 89 267 L 152 267 L 152 337.5 L 89 337.5 Z M 89 267 "/></clipPath></defs><g id="31fd1ef094"><g clip-rule="nonzero" clip-path="url(#eb431729fb)"><path style=" stroke:none;fill-rule:nonzero;fill:#03964f;fill-opacity:1;" d="M 231.5625 37.5 L 82.6875 123.421875 L 82.6875 196.746094 L 292.296875 74.53125 Z M 231.5625 37.5 "/></g><g clip-rule="nonzero" clip-path="url(#25eebaae46)"><path style=" stroke:none;fill-rule:nonzero;fill:#121212;fill-opacity:1;" d="M 82.6875 215.261719 L 82.6875 290.070312 L 263.410156 184.152344 L 201.933594 147.121094 Z M 82.6875 215.261719 "/></g><g clip-rule="nonzero" clip-path="url(#eb78bc1a39)"><path style=" stroke:none;fill-rule:nonzero;fill:#121212;fill-opacity:1;" d="M 151.566406 337.46875 L 151.566406 267.851562 L 89.351562 302.660156 Z M 151.566406 337.46875 "/></g></g></svg>